# xmcd CD database file
#
# Track frame offsets:
#	225
#	11459
#	23489
#	35557
#	45733
#	58704
#	71089
#	78566
#	87930
#	103398
#	116146
#	129602
#	146268
#	158349
#	173547
#	191506
#	205173
#	219845
#
# Disc length: 3128 seconds
#
# Revision: 0
# Processed by: cddbd v1.5.2PL0 Copyright (c) Steve Scherf et al.
# Submitted via: CDex 1.70beta2
#
DISCID=ef0c3512
DTITLE=Dolly Parton and Kenny Rogers - Orginal Hits
DYEAR=1900
DGENRE=Country
TTITLE0=Dolly Parton-It wasn't God Who made Honky Tonk Angels
TTITLE1=Dolly Parton-Making Believe
TTITLE2=Dolly Parton-Letter to Heaven
TTITLE3=Dolly Parton-Release Me
TTITLE4=Dolly Parton-Little Blossoms
TTITLE5=Dolly Parton-Two little Orphans
TTITLE6=Dolly Parton-Puppy Love
TTITLE7=Dolly Parton-A Girl Left Alone
TTITLE8=Kenny Rogers-For The Good Times
TTITLE9=Kenny Rogers-Rueben James
TTITLE10=Kenny Rogers-Shine on ruby mountain
TTITLE11=Kenny Rogers-Tulsa Turnaround
TTITLE12=Kenny Rogers-Me and Bobby McGhee
TTITLE13=Kenny Rogers-Just dropped in
TTITLE14=Kenny Rogers-Something's burning
TTITLE15=Kenny Rogers-Ruby, don't take your love to town
TTITLE16=Kenny Rogers-Sunshine
TTITLE17=Kenny Rogers-Heed the call
EXTD=
EXTT0=
EXTT1=
EXTT2=
EXTT3=
EXTT4=
EXTT5=
EXTT6=
EXTT7=
EXTT8=
EXTT9=
EXTT10=
EXTT11=
EXTT12=
EXTT13=
EXTT14=
EXTT15=
EXTT16=
EXTT17=
PLAYORDER=
